PathFileType	4	(X/Y/Z)	 s03c0302.trc
DataRate	CameraRate	NumFrames	NumMarkers	Units	OrigDataRate	OrigDataStartFrame	OrigNumFrames
200	200	4	52	mm	200	751	2000
Frame#	Time	racr			lacr			c7			jug			rlel			rdr			llel			ldr			s2			lic			ric			lasi			rasi			rpsi			lpsi			rgt			lgt			rth1			rth2			rth3			rth4			rlfc			rmfc			rsh1			rsh2			rsh3			rsh4			rlmal			rmmal			rcal			rtoe			rmt5			rmt1			lth1			lth2			lth4			lth3			llfc			lmfc			lsh1			lsh2			lsh3			lsh4			llmal			lmmal			lcal			ltoe			lmt1			lmt5			SBIKE			LBIKE			RBIKE			
		X1	Y1	Z1	X2	Y2	Z2	X3	Y3	Z3	X4	Y4	Z4	X5	Y5	Z5	X6	Y6	Z6	X7	Y7	Z7	X8	Y8	Z8	X9	Y9	Z9	X10	Y10	Z10	X11	Y11	Z11	X12	Y12	Z12	X13	Y13	Z13	X14	Y14	Z14	X15	Y15	Z15	X16	Y16	Z16	X17	Y17	Z17	X18	Y18	Z18	X19	Y19	Z19	X20	Y20	Z20	X21	Y21	Z21	X22	Y22	Z22	X23	Y23	Z23	X24	Y24	Z24	X25	Y25	Z25	X26	Y26	Z26	X27	Y27	Z27	X28	Y28	Z28	X29	Y29	Z29	X30	Y30	Z30	X31	Y31	Z31	X32	Y32	Z32	X33	Y33	Z33	X34	Y34	Z34	X35	Y35	Z35	X36	Y36	Z36	X37	Y37	Z37	X38	Y38	Z38	X39	Y39	Z39	X40	Y40	Z40	X41	Y41	Z41	X42	Y42	Z42	X43	Y43	Z43	X44	Y44	Z44	X45	Y45	Z45	X46	Y46	Z46	X47	Y47	Z47	X48	Y48	Z48	X49	Y49	Z49	X50	Y50	Z50	X51	Y51	Z51	X52	Y52	Z52	
751	3.7550	711.056202	1473.322748	-73.266112	716.588638	1469.972542	-398.690353	656.614395	1565.880733	-240.394631	668.749544	1391.602461	-235.760319	609.570202	1207.487731	20.219666	754.338033	961.104009	-38.855903	664.204905	1204.245683	-492.731147	762.353782	928.310744	-416.032740	129.941489	1298.191451	-249.289541	314.940541	1310.950993	-424.537634	286.291628	1325.415408	-58.696688	326.143839	1237.499046	-382.777771	312.651681	1245.377639	-101.645815	158.384202	1346.458327	-206.705084	169.168602	1344.411900	-282.376073	229.725834	1211.743612	-48.643491	244.791647	1204.650402	-445.853063	313.412740	1065.898408	-27.830993	383.367699	1010.765903	-28.669468	418.968528	932.877766	-35.643742	412.038742	1032.945422	-37.787191	477.051662	816.135693	-64.186566	485.341969	799.117951	-179.588670	417.847065	660.131511	-38.348352	408.259053	572.598815	-52.855576	355.283915	501.639241	-55.171261	436.630475	564.630625	-78.113964	295.515394	384.914088	-70.239918	322.536361	391.174262	-157.461836	226.306579	346.447585	-106.456815	535.291791	304.322639	-107.790472	415.472959	304.773986	-37.379946	441.952081	316.561044	-151.710208	319.855251	1070.906328	-471.418722	379.594924	1009.156458	-482.325250	411.105011	1026.101987	-476.469025	401.180318	923.012196	-488.360333	468.578137	807.536098	-487.805591	471.792587	789.237228	-363.226549	331.583154	696.968085	-495.523015	289.681093	626.907778	-471.084965	211.281181	584.168772	-454.253441	315.506022	605.168945	-450.687014	118.837773	507.404591	-425.633760	NaN	NaN	NaN	56.520707	538.319753	-375.410702	191.785258	262.638148	-347.255354	143.767677	344.944265	-313.231629	117.412564	349.265497	-429.729928	-213.344330	946.426521	-229.431912	-6.047754	84.213421	-435.116756	-11.511733	81.253746	-34.646694	
752	3.7600	713.927624	1470.050979	-74.833949	716.754923	1467.749920	-399.524344	658.118728	1563.100849	-241.161443	670.106520	1388.959766	-237.032330	609.514881	1205.398389	20.283809	754.082754	960.139461	-39.434176	665.553691	1202.004726	-492.808113	761.627753	925.542262	-412.932176	130.262721	1296.112913	-248.652383	315.577657	1308.619036	-423.410680	288.045208	1321.058223	-57.519105	326.381780	1235.438087	-381.445333	313.691374	1241.488775	-100.556592	159.116725	1343.646558	-205.538298	168.600109	1342.820072	-284.705859	229.164983	1207.348906	-47.733665	246.446765	1204.259477	-445.567350	310.507094	1060.513116	-27.495395	379.073748	1003.699002	-28.639707	412.729940	924.995442	-36.081185	408.319674	1025.357008	-37.347914	468.751461	808.098616	-64.895024	475.787459	792.232482	-181.915183	411.583991	651.520260	-38.129006	403.248234	563.744658	-52.449738	351.343317	492.040962	-54.504341	431.643386	556.226661	-77.665535	292.985898	373.915841	-70.062629	319.664028	380.688801	-156.822090	224.149991	335.603291	-105.655518	533.544459	291.605865	-109.536224	413.487337	293.097271	-37.152395	439.925279	305.383760	-151.329171	322.193024	1071.617814	-473.086171	383.229997	1011.038205	-484.326016	414.404170	1028.477006	-477.689632	406.602607	925.456483	-491.538748	474.647866	811.957440	-491.036017	492.763043	796.510272	-356.733006	334.953596	704.162233	-498.061632	291.613760	635.110646	-473.116898	212.285432	594.305668	-455.753254	317.031032	612.772013	-453.014313	118.502101	518.654189	-426.289704	NaN	NaN	NaN	55.745749	548.956535	-375.915520	194.938495	275.274657	-347.216802	145.821954	356.957721	-313.438967	119.231594	360.368127	-429.783633	-213.203545	946.453215	-229.301209	-6.012306	84.207996	-435.077955	-11.458198	81.168592	-34.601606	
753	3.7650	716.849016	1466.708089	-76.325666	716.847708	1465.657447	-400.484540	659.596412	1560.339631	-242.064947	671.404638	1386.531945	-238.516980	609.315386	1203.327126	20.310129	753.679196	959.142695	-40.076592	666.672221	1199.595971	-493.164754	761.050199	923.680876	-412.647900	130.594336	1293.785595	-247.850779	316.204643	1306.117909	-422.332298	289.731192	1316.637883	-56.483919	326.615093	1233.341765	-380.040223	314.892873	1237.454429	-99.412007	159.802936	1340.777160	-204.055359	168.999573	1340.820679	-283.438687	228.820699	1203.221787	-46.719107	248.094923	1203.685396	-445.202102	307.429840	1055.188252	-27.293218	374.837288	996.747420	-28.676815	406.087967	917.491629	-36.752220	404.457136	1017.751606	-36.998666	460.637520	800.725344	-65.540662	468.654323	785.819470	-181.932906	405.614482	642.868059	-38.138648	397.836638	555.054728	-52.374629	347.061679	482.696486	-53.633761	426.488696	547.608188	-77.347860	290.237901	363.401851	-69.798336	316.835991	370.523239	-156.035551	221.683041	325.284077	-104.855491	530.844123	279.502034	-109.819844	410.892061	281.577310	-36.882146	437.189011	294.311562	-151.269455	324.790959	1072.426307	-474.432225	387.175519	1013.331468	-486.116777	417.918687	1031.179681	-478.593234	412.236653	928.248137	-494.522787	480.673158	816.762770	-494.142744	508.886954	802.670595	-353.520357	338.631209	711.422540	-500.499555	293.908015	643.387508	-475.176913	213.835745	604.218813	-457.297446	318.963292	620.230844	-454.893681	118.691189	529.662078	-426.937180	NaN	NaN	NaN	55.618196	559.154747	-376.538714	198.858950	287.863436	-347.289045	139.279369	362.196666	-302.174175	121.506916	371.505751	-429.982963	-213.136153	946.426816	-229.195635	-6.006691	84.189530	-435.063461	-11.474130	81.167457	-34.581002	
754	3.7700	719.467382	1463.032739	-78.207869	716.837976	1463.576930	-401.382923	660.934917	1557.644168	-243.085067	672.602443	1384.089703	-240.150534	608.924391	1201.293931	20.377563	753.075652	958.208127	-40.770458	667.577342	1197.207304	-493.678566	760.989749	922.513706	-412.728439	130.865339	1291.553019	-246.819936	316.726743	1303.524381	-421.203529	291.416125	1312.025204	-55.575791	326.847963	1231.409080	-378.782784	316.188620	1233.355568	-98.258902	160.458646	1337.955591	-201.487198	169.276644	1338.706221	-282.331958	228.658968	1199.191880	-45.815157	249.734711	1202.957042	-444.649675	304.335673	1049.921471	-27.216783	370.081728	990.147186	-28.494909	399.896179	910.127074	-37.271318	400.542656	1010.364892	-36.028888	452.739973	793.506679	-66.233763	460.553383	779.016305	-182.504645	399.377202	634.391446	-38.333534	392.529642	546.298985	-51.988884	342.498117	473.531083	-52.935845	421.295137	539.125998	-76.916041	287.206317	353.318922	-69.482631	313.793572	360.472452	-154.998205	218.746709	315.871866	-104.004532	527.584437	267.761874	-110.044048	407.841784	270.360634	-36.826654	433.913959	283.956421	-151.467643	327.565903	1073.674260	-475.720601	391.261436	1015.986882	-487.658379	421.580491	1034.228300	-479.238682	417.949382	931.516460	-497.291409	486.648541	821.483486	-496.837205	520.813775	807.900216	-353.080658	342.655000	718.500819	-502.807584	296.704883	651.475269	-477.282167	215.920633	613.896088	-458.862375	321.361038	627.854513	-457.071168	119.622591	540.337060	-427.815404	NaN	NaN	NaN	55.932698	569.112952	-376.964295	203.414693	300.175078	-347.049738	142.546026	373.868490	-302.304251	124.664235	382.560298	-430.304218	-213.083862	946.377157	-229.174203	-5.999293	84.144769	-435.061784	-11.438828	81.108933	-34.588088	
